<svg version="1.1" id="Layer_1" xmlns="http://www.w3.org/2000/svg" xmlns:xlink="http://www.w3.org/1999/xlink" x="0px" y="0px"
	 width="100%" viewBox="0 0 750 750" enable-background="new 0 0 750 750" xml:space="preserve">
<path fill="#3E4F93" opacity="1.000000" stroke="none" 
	d="
M1.000000,273.000000 
	C1.000000,182.000000 1.000000,91.500000 1.000000,1.000000 
	C251.000000,1.000000 501.000000,1.000000 751.000000,1.000000 
	C751.000000,251.000000 751.000000,501.000000 751.000000,751.000000 
	C501.000000,751.000000 251.000000,751.000000 1.000000,751.000000 
	C1.000000,591.833313 1.000000,432.666656 1.000000,273.000000 
M429.671326,75.425224 
	C431.081512,63.493782 432.491730,51.562344 433.901917,39.630905 
	C433.475189,39.465580 433.048492,39.300255 432.621765,39.134930 
	C348.712646,167.337097 264.803558,295.539276 180.293564,424.659515 
	C183.173431,424.659515 184.941345,424.659485 186.709259,424.659485 
	C231.869995,424.659515 277.030731,424.659424 322.191467,424.659973 
	C323.524597,424.659973 324.858887,424.633148 326.190674,424.677368 
	C329.369019,424.782928 330.640747,426.297760 330.060669,429.544983 
	C329.362366,433.454041 328.798157,437.395721 328.381226,441.344940 
	C326.295471,461.102417 324.436646,480.885101 322.194336,500.624451 
	C319.406982,525.161926 316.242035,549.656311 313.386261,574.186340 
	C309.813110,604.878357 306.369324,635.585510 302.909058,666.290527 
	C301.520752,678.610107 300.237244,690.941467 298.906006,703.267456 
	C299.256165,703.431702 299.606354,703.596008 299.956512,703.760254 
	C383.829529,575.610962 467.702545,447.461639 552.211609,318.340485 
	C549.049316,318.340485 547.261841,318.340485 545.474426,318.340485 
	C516.811523,318.340485 488.148651,318.340576 459.485748,318.340393 
	C442.154694,318.340302 424.823547,318.312561 407.492645,318.363892 
	C404.253601,318.373474 401.851685,317.957245 402.345520,313.748108 
	C404.841583,292.473846 407.220612,271.185883 409.698425,249.909470 
	C411.812958,231.752472 414.088135,213.613876 416.143372,195.450287 
	C418.810944,171.875366 421.277100,148.277679 423.933319,124.701431 
	C425.751129,108.567047 427.745300,92.452530 429.671326,75.425224 
M409.389435,720.752502 
	C432.579010,718.658630 455.350861,714.357971 477.592590,707.463379 
	C508.060638,698.018677 536.818787,684.988342 563.677002,667.567627 
	C583.546143,654.680237 601.883301,639.998535 618.859375,623.632446 
	C634.172363,608.869629 648.279846,592.925842 659.792419,574.965088 
	C669.273987,560.172852 679.182129,545.490295 686.899353,529.776062 
	C694.920654,513.442932 701.223938,496.160614 707.052185,478.879761 
	C716.546387,450.728760 721.219543,421.466766 722.395874,391.879364 
	C723.106323,374.011749 721.893738,355.985229 720.330078,338.136566 
	C719.147156,324.634369 716.668274,311.158325 713.663452,297.920990 
	C707.091553,268.969147 696.695984,241.392593 682.862427,215.039871 
	C667.697632,186.151215 648.731018,160.052231 626.216797,136.608795 
	C604.389465,113.880569 579.905701,94.392067 552.588989,78.428139 
	C528.068665,64.098450 502.349335,52.728760 475.185150,44.572914 
	C470.193481,43.074207 465.085541,41.962906 460.009949,40.667355 
	C458.066376,55.967022 456.132568,70.543617 454.491241,85.153069 
	C454.334747,86.546196 455.700989,89.141602 456.873322,89.499817 
	C478.130402,95.994873 498.225433,105.058235 517.558289,115.968643 
	C547.901184,133.092484 573.853943,155.466431 596.244629,181.976913 
	C622.655823,213.247711 641.492554,248.677353 653.465027,287.839294 
	C660.973450,312.399292 665.376770,337.558746 666.039978,363.083679 
	C666.533569,382.082336 665.402161,401.289612 663.028748,420.156677 
	C659.618958,447.263367 651.747131,473.410126 640.524597,498.366028 
	C621.818787,539.962585 595.036743,575.579346 560.271484,605.181396 
	C537.284607,624.754272 511.661682,640.021240 483.941467,651.729919 
	C465.546906,659.499634 446.497711,665.422607 426.674255,668.318665 
	C414.900269,670.038757 403.061707,671.601562 391.196625,672.329956 
	C380.150116,673.008179 369.029388,672.422852 357.942810,672.536682 
	C354.837677,672.568542 351.504211,670.958496 348.849731,674.539429 
	C338.385712,688.655945 327.705627,702.612183 316.757996,717.087646 
	C347.516449,722.605957 377.928802,723.416260 409.389435,720.752502 
M83.185974,392.025757 
	C83.019501,391.213013 82.672478,390.391113 82.712975,389.588837 
	C83.707664,369.880920 83.725998,350.053802 86.056747,330.502869 
	C88.409653,310.766022 93.689384,291.501587 100.546135,272.699432 
	C112.873413,238.896362 130.357651,208.095398 153.697174,180.778320 
	C183.542953,145.846222 219.453049,119.022369 261.790833,100.726929 
	C294.838654,86.445953 329.388641,79.649811 365.100952,77.529274 
	C367.334259,77.396667 370.085388,75.882439 371.519073,74.130180 
	C377.817322,66.432472 383.767548,58.446827 389.750000,50.494892 
	C394.278900,44.475048 398.665802,38.348366 403.352051,31.946609 
	C237.332443,16.088949 55.026337,135.100876 32.721806,340.168060 
	C12.845568,522.909607 137.897125,668.951294 276.202911,706.893677 
	C276.893158,701.816345 277.645111,696.781006 278.250305,691.728027 
	C279.430267,681.876038 280.514191,672.012451 281.668732,662.157349 
	C282.001678,659.315186 281.127991,657.779480 278.127167,656.718567 
	C270.928619,654.173645 263.812866,651.320251 256.868225,648.144165 
	C223.080643,632.692322 193.211792,611.732788 167.255859,585.033691 
	C135.010574,551.865234 111.932236,513.223328 97.469551,469.463989 
	C89.273293,444.664825 84.311958,419.133575 83.185974,392.025757 
z"/>
<path fill="#FEFEFF" opacity="1.000000" stroke="none" 
	d="
M429.665955,75.877174 
	C427.745300,92.452530 425.751129,108.567047 423.933319,124.701431 
	C421.277100,148.277679 418.810944,171.875366 416.143372,195.450287 
	C414.088135,213.613876 411.812958,231.752472 409.698425,249.909470 
	C407.220612,271.185883 404.841583,292.473846 402.345520,313.748108 
	C401.851685,317.957245 404.253601,318.373474 407.492645,318.363892 
	C424.823547,318.312561 442.154694,318.340302 459.485748,318.340393 
	C488.148651,318.340576 516.811523,318.340485 545.474426,318.340485 
	C547.261841,318.340485 549.049316,318.340485 552.211609,318.340485 
	C467.702545,447.461639 383.829529,575.610962 299.956512,703.760254 
	C299.606354,703.596008 299.256165,703.431702 298.906006,703.267456 
	C300.237244,690.941467 301.520752,678.610107 302.909058,666.290527 
	C306.369324,635.585510 309.813110,604.878357 313.386261,574.186340 
	C316.242035,549.656311 319.406982,525.161926 322.194336,500.624451 
	C324.436646,480.885101 326.295471,461.102417 328.381226,441.344940 
	C328.798157,437.395721 329.362366,433.454041 330.060669,429.544983 
	C330.640747,426.297760 329.369019,424.782928 326.190674,424.677368 
	C324.858887,424.633148 323.524597,424.659973 322.191467,424.659973 
	C277.030731,424.659424 231.869995,424.659515 186.709259,424.659485 
	C184.941345,424.659485 183.173431,424.659515 180.293564,424.659515 
	C264.803558,295.539276 348.712646,167.337097 432.621765,39.134930 
	C433.048492,39.300255 433.475189,39.465580 433.901917,39.630905 
	C432.491730,51.562344 431.081512,63.493782 429.665955,75.877174 
z"/>
<path fill="#FEFEFE" opacity="1.000000" stroke="none" 
	d="
M408.939819,720.858704 
	C377.928802,723.416260 347.516449,722.605957 316.757996,717.087646 
	C327.705627,702.612183 338.385712,688.655945 348.849731,674.539429 
	C351.504211,670.958496 354.837677,672.568542 357.942810,672.536682 
	C369.029388,672.422852 380.150116,673.008179 391.196625,672.329956 
	C403.061707,671.601562 414.900269,670.038757 426.674255,668.318665 
	C446.497711,665.422607 465.546906,659.499634 483.941467,651.729919 
	C511.661682,640.021240 537.284607,624.754272 560.271484,605.181396 
	C595.036743,575.579346 621.818787,539.962585 640.524597,498.366028 
	C651.747131,473.410126 659.618958,447.263367 663.028748,420.156677 
	C665.402161,401.289612 666.533569,382.082336 666.039978,363.083679 
	C665.376770,337.558746 660.973450,312.399292 653.465027,287.839294 
	C641.492554,248.677353 622.655823,213.247711 596.244629,181.976913 
	C573.853943,155.466431 547.901184,133.092484 517.558289,115.968643 
	C498.225433,105.058235 478.130402,95.994873 456.873322,89.499817 
	C455.700989,89.141602 454.334747,86.546196 454.491241,85.153069 
	C456.132568,70.543617 458.066376,55.967022 460.009949,40.667355 
	C465.085541,41.962906 470.193481,43.074207 475.185150,44.572914 
	C502.349335,52.728760 528.068665,64.098450 552.588989,78.428139 
	C579.905701,94.392067 604.389465,113.880569 626.216797,136.608795 
	C648.731018,160.052231 667.697632,186.151215 682.862427,215.039871 
	C696.695984,241.392593 707.091553,268.969147 713.663452,297.920990 
	C716.668274,311.158325 719.147156,324.634369 720.330078,338.136566 
	C721.893738,355.985229 723.106323,374.011749 722.395874,391.879364 
	C721.219543,421.466766 716.546387,450.728760 707.052185,478.879761 
	C701.223938,496.160614 694.920654,513.442932 686.899353,529.776062 
	C679.182129,545.490295 669.273987,560.172852 659.792419,574.965088 
	C648.279846,592.925842 634.172363,608.869629 618.859375,623.632446 
	C601.883301,639.998535 583.546143,654.680237 563.677002,667.567627 
	C536.818787,684.988342 508.060638,698.018677 477.592590,707.463379 
	C455.350861,714.357971 432.579010,718.658630 408.939819,720.858704 
z"/>
<path fill="#FEFEFE" opacity="1.000000" stroke="none" 
	d="
M83.334740,392.471985 
	C84.311958,419.133575 89.273293,444.664825 97.469551,469.463989 
	C111.932236,513.223328 135.010574,551.865234 167.255859,585.033691 
	C193.211792,611.732788 223.080643,632.692322 256.868225,648.144165 
	C263.812866,651.320251 270.928619,654.173645 278.127167,656.718567 
	C281.127991,657.779480 282.001678,659.315186 281.668732,662.157349 
	C280.514191,672.012451 279.430267,681.876038 278.250305,691.728027 
	C277.645111,696.781006 276.893158,701.816345 276.202911,706.893677 
	C137.897125,668.951294 12.845568,522.909607 32.721806,340.168060 
	C55.026337,135.100876 237.332443,16.088949 403.352051,31.946609 
	C398.665802,38.348366 394.278900,44.475048 389.750000,50.494892 
	C383.767548,58.446827 377.817322,66.432472 371.519073,74.130180 
	C370.085388,75.882439 367.334259,77.396667 365.100952,77.529274 
	C329.388641,79.649811 294.838654,86.445953 261.790833,100.726929 
	C219.453049,119.022369 183.542953,145.846222 153.697174,180.778320 
	C130.357651,208.095398 112.873413,238.896362 100.546135,272.699432 
	C93.689384,291.501587 88.409653,310.766022 86.056747,330.502869 
	C83.725998,350.053802 83.707664,369.880920 82.712975,389.588837 
	C82.672478,390.391113 83.019501,391.213013 83.334740,392.471985 
z"/>
</svg>